# xmcd
#
# Track frame offsets:
# 150
# 13508
# 28746
# 48430
# 60714
# 76158
# 93393
# 109620
# 122747
# 145917
# 161861
# 176861
# 188314
# 202388
# 218211
#
# Disc length: 3096 seconds
#
#
# Revision: 0
# Processed by: cddbd v1.5.2PL0 Copyright (c) Steve Scherf et al.
# Submitted via: FreeRIP 2.951 
#
DISCID=d20c160f
DTITLE=Line Dance Musik 1
DYEAR=1900
DGENRE=
TTITLE0=Stand by You Man
TTITLE1=Achy Breaky Heart
TTITLE2=If  I Said You Had A Beatiful Body
TTITLE3=Something Stupid
TTITLE4=I´m Holding On To Love
TTITLE5=Baby Like To Rock It
TTITLE6=Shoting Frem The Hip
TTITLE7=Sirtaki
TTITLE8=I Ride A Horse
TTITLE9=Kabouterdance
TTITLE10=Heart Is Right
TTITLE11=Hillbilly Rock, Hillbilly Roll
TTITLE12=Cotton Eye Joe
TTITLE13=Old Pop In A Oak
TTITLE14=I Love A Rainy Night
EXTD=
EXTT0=
EXTT1=
EXTT2=
EXTT3=
EXTT4=
EXTT5=
EXTT6=
EXTT7=
EXTT8=
EXTT9=
EXTT10=
EXTT11=
EXTT12=
EXTT13=
EXTT14=
PLAYORDER=
